<svg height="512" viewBox="0 0 64 64" width="512" xmlns="http://www.w3.org/2000/svg"><path d="m25 10h6v8h-17a1 1 0 0 0 -1 1v4h2v-3h16v3h2v-3h16v3h2v-4a1 1 0 0 0 -1-1h-17v-8h6a4 4 0 0 0 0-8h-14a4 4 0 0 0 0 8zm0-6h14a2 2 0 0 1 0 4h-14a2 2 0 0 1 0-4z"/><path d="m16 25h-4a4 4 0 0 0 0 8h4a4 4 0 0 0 0-8zm0 6h-4a2 2 0 0 1 0-4h4a2 2 0 0 1 0 4z"/><path d="m34 25h-4a4 4 0 0 0 0 8h4a4 4 0 0 0 0-8zm0 6h-4a2 2 0 0 1 0-4h4a2 2 0 0 1 0 4z"/><path d="m52 25h-4a4 4 0 0 0 0 8h4a4 4 0 0 0 0-8zm0 6h-4a2 2 0 0 1 0-4h4a2 2 0 0 1 0 4z"/><path d="m7 62h50a4 4 0 0 0 4-4v-49a4 4 0 0 0 -4-4h-12v2h12a2 2 0 0 1 2 2v4h-24v2h24v43a2 2 0 0 1 -2 2h-50a2 2 0 0 1 -2-2v-43h24v-2h-24v-4a2 2 0 0 1 2-2h12v-2h-12a4 4 0 0 0 -4 4v49a4 4 0 0 0 4 4z"/><path d="m8 35h2v2h-2z"/><path d="m12 35h8v2h-8z"/><path d="m26 35h2v2h-2z"/><path d="m30 35h8v2h-8z"/><path d="m44 35h2v2h-2z"/><path d="m48 35h8v2h-8z"/><path d="m49 47h2v-4a1 1 0 0 0 -1-1h-35v-3h-2v8h2v-3h16v3h2v-3h16z"/><path d="m12 57h4a4 4 0 0 0 0-8h-4a4 4 0 0 0 0 8zm0-6h4a2 2 0 0 1 0 4h-4a2 2 0 0 1 0-4z"/><path d="m30 49a4 4 0 0 0 0 8h4a4 4 0 0 0 0-8zm6 4a2 2 0 0 1 -2 2h-4a2 2 0 0 1 0-4h4a2 2 0 0 1 2 2z"/><path d="m48 57h4a4 4 0 0 0 0-8h-4a4 4 0 0 0 0 8zm0-6h4a2 2 0 0 1 0 4h-4a2 2 0 0 1 0-4z"/><path d="m7 9h2v2h-2z"/><path d="m11 9h2v2h-2z"/><path d="m15 9h2v2h-2z"/></svg>